<svg id="Wired_logo" xmlns="http://www.w3.org/2000/svg" width="109.573" height="22.406" viewBox="0 0 109.573 22.406">
  <path id="Path_45" data-name="Path 45" d="M0,0H21.942V22.406H0V0M1.612,3.525C2.6,8.061,3.47,12.651,4.4,17.215c.164.546.055,1.257.6,1.639a12.84,12.84,0,0,0,2.9.055c.519.027.656-.6.738-1.011C9.29,14.646,10,11.422,10.657,8.17A3.254,3.254,0,0,1,10.93,7.3c.82,3.5,1.5,7,2.241,10.493.109.383.137.82.492,1.066a12.1,12.1,0,0,0,3.142,0c.383-.219.383-.683.492-1.066.956-4.755,1.858-9.536,2.869-14.291h-2.76c-.738,4.153-1.312,8.307-2.131,12.433-.9-3.5-1.53-7.077-2.323-10.629-.191-.6-.109-1.476-.765-1.8a18.057,18.057,0,0,0-2.432,0c-.465.027-.574.574-.656.929C8.471,7.979,7.706,11.476,7,14.974c-.082.328-.191.628-.3.956C5.957,11.8,5.274,7.651,4.618,3.525Z" fill="#c2c2c2"/>
  <path id="Path_46" data-name="Path 46" d="M80.3,0h21.723V22.406H80.3V0m5.547,3.361v2.76H89.59V16.286H85.847v2.76h10.6v-2.76H92.705V6.121h3.744V3.361Z" transform="translate(-58.358)" fill="#fff"/>
  <path id="Path_47" data-name="Path 47" d="M159.727,0h21.915V22.406H159.7c.027-7.46.027-14.947.027-22.406m4.946,3.525V18.881h3.033V12.87h4.946a1.177,1.177,0,0,1,1.312,1.038c.082,1.667.219,3.306.328,4.973h2.9c-.273-1.885.055-3.825-.465-5.656-.273-.956-1.339-1.175-2.159-1.421.628-.328,1.421-.355,1.858-.956a4.55,4.55,0,0,0,.71-2.924,5.391,5.391,0,0,0-.738-3.443,3.146,3.146,0,0,0-2.651-.929C170.685,3.525,167.679,3.525,164.673,3.525Z" transform="translate(-116.062)" fill="#c2c2c2"/>
  <path id="Path_48" data-name="Path 48" d="M240,0h21.805V22.406H240V0m3.907,3.361V6.093h2.077V16.258h-2.077v2.76h13.171c.027-1.8,0-3.634,0-5.438h-2.869v2.678H248.99c-.027-1.339,0-2.678,0-4.017h4.1V9.618h-4.1V6.093h5.082v2.35h2.814V3.334C252.569,3.361,248.252,3.361,243.907,3.361Z" transform="translate(-174.42)" fill="#fff"/>
  <path id="Path_49" data-name="Path 49" d="M319.727,0h22.188V22.406H319.7c.027-7.46.027-14.947.027-22.406m4.946,3.525V18.881h7.651c1.585-.027,3.416-.328,4.345-1.721,1.12-1.776.929-3.935,1.148-5.929-.191-1.995-.027-4.181-1.148-5.957-.874-1.312-2.569-1.667-4.044-1.721C329.974,3.5,327.324,3.525,324.673,3.525Z" transform="translate(-232.343)" fill="#c2c2c2"/>
  <path id="Path_50" data-name="Path 50" d="M100.545,12.3h10.6v2.76H107.4V25.225h3.743v2.76h-10.6c-.027-.929-.027-1.831,0-2.76h3.743V15.06h-3.743Z" transform="translate(-73.057 -8.939)" fill="#c2c2c2"/>
  <path id="Path_51" data-name="Path 51" d="M254.268,12.245c4.317-.027,8.662-.027,12.979,0v5.11h-2.814v-2.35H259.35V18.53h4.1v2.623h-4.1V25.17c1.749-.027,3.47,0,5.219,0V22.492h2.869V27.93H254.268c-.027-.929,0-1.831,0-2.76h2.077V15.005h-2.077Z" transform="translate(-184.781 -8.885)" fill="#c2c2c2"/>
  <path id="Path_52" data-name="Path 52" d="M5.9,12.864H8.906c.628,4.153,1.339,8.279,2.077,12.405a9.783,9.783,0,0,0,.3-.956c.71-3.5,1.476-7,2.213-10.493.082-.355.191-.9.656-.929a18.057,18.057,0,0,1,2.432,0c.656.3.574,1.175.765,1.8.792,3.525,1.394,7.1,2.323,10.629.82-4.126,1.394-8.307,2.131-12.433h2.76c-1.011,4.755-1.913,9.536-2.869,14.291-.109.383-.109.847-.492,1.066a12.1,12.1,0,0,1-3.142,0c-.355-.219-.383-.683-.492-1.066-.765-3.5-1.448-7.022-2.241-10.493a2.508,2.508,0,0,0-.273.874c-.656,3.252-1.366,6.476-2.022,9.728-.109.383-.219,1.011-.738,1.011a12.84,12.84,0,0,1-2.9-.055c-.519-.355-.41-1.093-.6-1.639C7.758,21.99,6.884,17.4,5.9,12.864Z" transform="translate(-4.288 -9.339)" fill="#fff"/>
  <path id="Path_53" data-name="Path 53" d="M177.827,12.9h9.045a3.146,3.146,0,0,1,2.651.929,5.762,5.762,0,0,1,.738,3.443,4.55,4.55,0,0,1-.71,2.924c-.437.6-1.23.628-1.858.956.82.246,1.885.465,2.159,1.421.519,1.831.191,3.771.465,5.656h-2.9c-.109-1.667-.246-3.306-.328-4.973.027-.656-.71-1.093-1.312-1.038h-4.946v6.011H177.8c.027-5.082.027-10.219.027-15.329m3.033,2.514v4.454c1.8-.027,3.634.055,5.465-.027.984-.055.984-1.23,1.038-1.967-.027-.82.109-1.885-.628-2.4C184.768,15.359,182.8,15.441,180.86,15.414Z" transform="translate(-129.216 -9.375)" fill="#fff"/>
  <path id="Path_54" data-name="Path 54" d="M337.9,12.882c2.651,0,5.3-.027,7.952.027,1.476.055,3.17.41,4.044,1.721,1.12,1.776.929,3.962,1.148,5.957-.191,1.995-.027,4.153-1.148,5.929-.956,1.421-2.787,1.694-4.345,1.721-2.569.027-5.11,0-7.651,0V12.882m3.033,2.514V25.725h4.673A2.1,2.1,0,0,0,347.6,24.8a9.779,9.779,0,0,0,.437-3.662,15.388,15.388,0,0,0-.355-4.618,1.764,1.764,0,0,0-1.8-1.093C344.239,15.4,342.573,15.4,340.933,15.4Z" transform="translate(-245.569 -9.357)" fill="#fff"/>
  <path id="Path_55" data-name="Path 55" d="M188.927,22.073c1.94.027,3.907-.055,5.848.027.765.519.6,1.612.628,2.4-.027.738-.055,1.913-1.038,1.967-1.8.082-3.634,0-5.465.027C188.927,25.051,188.927,23.548,188.927,22.073Z" transform="translate(-137.283 -16.034)" fill="#c2c2c2"/>
  <path id="Path_56" data-name="Path 56" d="M349,22.1h4.946a1.815,1.815,0,0,1,1.8,1.093,15.386,15.386,0,0,1,.355,4.618,9.711,9.711,0,0,1-.437,3.662,2.1,2.1,0,0,1-1.995.929H349Z" transform="translate(-253.636 -16.061)" fill="#c2c2c2"/>
</svg>
