<svg xmlns="http://www.w3.org/2000/svg" width="132.227" height="22.411" viewBox="0 0 132.227 22.411">
  <path id="The_Verge_wordmark" d="M30.816,19.891a2.777,2.777,0,0,1-.675,1.96H43.7V15.044a7.931,7.931,0,0,1-3.222.645H37.539V13.447H39.08a5.777,5.777,0,0,1,2.381.42V7.984a5.786,5.786,0,0,1-2.381.42H37.539V5.883h2.941a7.921,7.921,0,0,1,3.222.644V0H30.115a2.657,2.657,0,0,1,.7,1.961ZM19.05,8.4V6.163h.284a5.175,5.175,0,0,1,2.237.432V0H12.052V21.851h7.7a2.653,2.653,0,0,1-.7-1.961V13.727h3.642V19.89a2.653,2.653,0,0,1-.7,1.961h7.7V0h-7V8.4ZM2.272,6.163h1.65V19.89a2.652,2.652,0,0,1-.7,1.961h7.7V0H0V6.6a5.444,5.444,0,0,1,2.272-.432ZM118.212,8.4H109.83a4.72,4.72,0,0,1-1.415-.2v5.435a4.756,4.756,0,0,1,1.415-.2h2.227v1.681a2.458,2.458,0,0,1-1.49.384,4.378,4.378,0,0,1-4.421-4.446,4.486,4.486,0,0,1,4.37-4.622,12.514,12.514,0,0,1,5.183,1.4V0h-5.6a10.758,10.758,0,0,0-10.87,11.01,11.252,11.252,0,0,0,11.15,11.4,12.27,12.27,0,0,0,8.39-3.138,3.961,3.961,0,0,1-.555-1.973V8.4Zm10.794-2.521a7.921,7.921,0,0,1,3.222.644V0H118.64a2.657,2.657,0,0,1,.7,1.961V19.891a2.777,2.777,0,0,1-.675,1.96h13.562V15.044a7.931,7.931,0,0,1-3.222.645h-2.941V13.447h1.541a5.777,5.777,0,0,1,2.381.42V7.984a5.786,5.786,0,0,1-2.381.42h-1.541V5.883Zm-32.5,6.107a7.1,7.1,0,0,0,1.877-4.7C98.386,2.26,94.638,0,90.618,0L81.945,0a2.646,2.646,0,0,1,.7,1.951l0,17.938a2.816,2.816,0,0,1-.7,1.961h8.345a2.812,2.812,0,0,1-.642-1.961V15.443A4.947,4.947,0,0,1,93.632,19.9a2.771,2.771,0,0,1-.678,1.952h8.323a3.239,3.239,0,0,1-.706-2.025c-.28-3.858-1.605-6.578-4.062-7.836ZM89.646,9.833V5.855c1.121,0,2.549.308,2.549,1.989S90.766,9.833,89.646,9.833ZM59.11,12.046,56.869,5.883h3.362L62.472,0H46.784a7.056,7.056,0,0,1,1.289,1.7l8.679,20.154h4.74L68.635,5.043V19.89a2.654,2.654,0,0,1-.7,1.961H81.522V15.044a8.087,8.087,0,0,1-3.222.924H75.358V13.447H76.9a5.786,5.786,0,0,1,2.381.42V7.984A5.782,5.782,0,0,1,76.9,8.4H75.358V6.163H78.3a7.893,7.893,0,0,1,3.222.644V0H63.593Z" fill="#c2c2c2"/>
</svg>
