<svg xmlns="http://www.w3.org/2000/svg" xmlns:xlink="http://www.w3.org/1999/xlink" width="140.231" height="24.11" viewBox="0 0 140.231 24.11">
  <defs>
    <clipPath id="clip-path">
      <rect id="Rectangle_5" data-name="Rectangle 5" width="140.231" height="24.11" fill="#c2c2c2"/>
    </clipPath>
  </defs>
  <g id="TechRadar_logo" clip-path="url(#clip-path)">
    <path id="Path_35" data-name="Path 35" d="M11.907,6.76H8.444V1.579H2.837V6.76H0v3.63H2.837v7.623c0,4.653,1.22,6.039,6,6.039,1.022,0,2.045-.132,3.067-.165V19.763c-.495,0-.989.066-1.451.066-1.221,0-2.012-.3-2.012-1.65V10.39h3.463Z" transform="translate(0 -0.325)" fill="#c2c2c2"/>
    <path id="Path_36" data-name="Path 36" d="M19.424,14.839c.33-2.064,1.649-3.472,3.628-3.472a3.454,3.454,0,0,1,3.331,3.472Zm12.566,3.113c.264-5.767-2.8-10.353-8.938-10.353a8.956,8.956,0,0,0-9.235,8.944c0,5.7,3.793,9.043,9.367,9.043,3.826,0,7.487-1.7,8.51-5.636H26.449a3.346,3.346,0,0,1-3.2,1.868c-2.375,0-3.727-1.54-3.826-3.866Z" transform="translate(-2.84 -1.562)" fill="#c2c2c2"/>
    <path id="Path_37" data-name="Path 37" d="M54.5,14.242c-.4-4.521-4.189-6.765-8.444-6.765-5.508,0-8.971,3.894-8.971,9.339,0,5.247,3.826,8.779,8.971,8.779,4.552,0,8.114-2.641,8.609-7.228H49.218a3,3,0,0,1-3.2,2.937c-2.375,0-3.332-2.277-3.332-4.489,0-2.375.5-5.049,3.629-5.049a2.638,2.638,0,0,1,2.737,2.475Z" transform="translate(-7.622 -1.537)" fill="#c2c2c2"/>
    <path id="Path_38" data-name="Path 38" d="M59.361,23.563h5.608V14.224c0-1.881.923-3.663,3.034-3.663,3.067,0,2.8,2.376,2.8,4.719v8.284h5.607V12.574c0-2.475-.462-6.634-6.168-6.634a5.971,5.971,0,0,0-5.212,2.839h-.065V0H59.361Z" transform="translate(-12.202)" fill="#c2c2c2"/>
    <path id="Path_39" data-name="Path 39" d="M81.362,25.2H86.97V16.714a3.941,3.941,0,0,1,4.222-4.063,7.833,7.833,0,0,1,2.144.33V7.862a5.951,5.951,0,0,0-1.32-.132,5.162,5.162,0,0,0-5.146,3.336H86.8V8.06H81.362Z" transform="translate(-16.725 -1.589)" fill="#c2c2c2"/>
    <path id="Path_40" data-name="Path 40" d="M101.117,20.239c0-1.355,1.056-1.883,2.309-2.181a15.761,15.761,0,0,0,3.464-.925c.132,3.534-.759,5.054-3.43,5.054C102.206,22.188,101.117,21.626,101.117,20.239Zm.33-6.937a2.509,2.509,0,0,1,2.8-2.147c1.155,0,2.705.495,2.705,1.784,0,1.057-.528,1.387-1.484,1.586-3.893.792-9.961.363-9.961,5.946,0,3.534,2.573,5.186,5.838,5.186a7.72,7.72,0,0,0,5.64-2.114,6.725,6.725,0,0,0,.33,1.618h5.64a9.989,9.989,0,0,1-.659-4.393v-7.5c0-4.856-3.925-5.748-7.983-5.748a11.28,11.28,0,0,0-5.442,1.189A5.272,5.272,0,0,0,96.2,13.3Z" transform="translate(-19.633 -1.546)" fill="#c2c2c2"/>
    <path id="Path_41" data-name="Path 41" d="M125.855,10.252c2.441,0,3.331,2.282,3.331,4.763,0,2.183-.593,4.8-3.331,4.8-2.573,0-3.43-2.613-3.43-4.961C122.424,12.667,123.281,10.252,125.855,10.252ZM134.6,0h-5.607V8.3h-.066a5.725,5.725,0,0,0-4.882-2.348c-4.848,0-7.223,4.233-7.223,8.7,0,4.829,2.275,9.459,7.652,9.459a5.467,5.467,0,0,0,4.717-2.481h.066v1.985H134.6Z" transform="translate(-24.013)" fill="#c2c2c2"/>
    <path id="Path_42" data-name="Path 42" d="M144.891,20.239c0-1.355,1.055-1.883,2.309-2.181a15.753,15.753,0,0,0,3.463-.925c.132,3.534-.759,5.054-3.43,5.054C145.98,22.188,144.891,21.626,144.891,20.239Zm.33-6.937a2.508,2.508,0,0,1,2.8-2.147c1.154,0,2.7.495,2.7,1.784,0,1.057-.527,1.387-1.484,1.586-3.892.792-9.961.363-9.961,5.946,0,3.534,2.572,5.186,5.838,5.186a7.723,7.723,0,0,0,5.641-2.114,6.724,6.724,0,0,0,.33,1.618h5.64a9.988,9.988,0,0,1-.659-4.393v-7.5c0-4.856-3.925-5.748-7.982-5.748a11.278,11.278,0,0,0-5.442,1.189,5.273,5.273,0,0,0-2.672,4.591Z" transform="translate(-28.631 -1.546)" fill="#c2c2c2"/>
    <path id="Path_43" data-name="Path 43" d="M161.443,25.2h5.608V16.714a3.941,3.941,0,0,1,4.222-4.063,7.833,7.833,0,0,1,2.144.33V7.862a5.951,5.951,0,0,0-1.32-.132,5.162,5.162,0,0,0-5.146,3.336h-.066V8.06h-5.443Z" transform="translate(-33.186 -1.589)" fill="#c2c2c2"/>
    <path id="Path_44" data-name="Path 44" d="M169.667,28.307H175.1V22.825h-5.429Z" transform="translate(-34.877 -4.692)" fill="#c2c2c2" fill-rule="evenodd"/>
  </g>
</svg>
