<svg xmlns="http://www.w3.org/2000/svg" width="135.506" height="23.515" viewBox="0 0 135.506 23.515">
  <path id="Path_57" data-name="Path 57" d="M116.894,37.236h1.816V41h-1.816V49.72h1.543v3.722h-5.266V41h-1.907V37.236h1.907V32.016h3.722ZM105.863,41h-1.18V37.236h4.948V49.72h1.543v3.768h-6.855V49.72h1.543V41Zm0-5.266V32.016h3.768v3.722ZM1.543,41H0V37.236H5.311v1.725a8.99,8.99,0,0,1,5.765-1.907v3.859c-4.54.091-5.765,2.315-5.765,4.4v4.4h1.5v3.768H0V49.72H1.543Zm44.851,0V37.236H41.355v1.135a7.994,7.994,0,0,0-4.449-1.316,7.849,7.849,0,0,0-5.856,2.451,8.2,8.2,0,0,0-2.451,5.9,7.848,7.848,0,0,0,2.451,5.856,7.991,7.991,0,0,0,5.856,2.452A7.55,7.55,0,0,0,41.355,52.4v1.044h5.039V49.675h-1.18V41Zm-9.215,9.17a4.812,4.812,0,1,1,0-9.624,4.813,4.813,0,0,1,0,9.624Zm26.375-.454V30.2h-5.4v3.768H59.7v4.54a8.088,8.088,0,0,0-4.63-1.407,7.849,7.849,0,0,0-5.856,2.451,8.172,8.172,0,0,0-2.451,5.856,8.311,8.311,0,0,0,12.938,6.9v1.18h5.4V49.72H63.554Zm-8.217.454a4.812,4.812,0,0,1,0-9.624,4.813,4.813,0,0,1,0,9.624ZM103.593,41V37.236a9.144,9.144,0,0,0-5.765,1.725V37.236H85.389V41h1.543l-4.494,7.808V37.282H77.627L70.817,48.858V41h1.543V37.236H65.551V41h1.543V53.443h5.357l6.265-10.577V53.443h5.266L91.291,41h2.77V49.72H92.517v3.768h6.809V49.72H97.782v-4.4C97.828,43.229,99.008,41.095,103.593,41ZM27.328,46.542a8.851,8.851,0,0,0,.091-1.135,8.226,8.226,0,1,0-.5,2.905h-3.9a4.587,4.587,0,0,1-3.768,2,4.7,4.7,0,0,1-4.54-3.768ZM19.248,40.5a4.668,4.668,0,0,1,4.313,3.042H14.935A4.668,4.668,0,0,1,19.248,40.5Zm116.168,6.038a8.769,8.769,0,0,0,.091-1.135,8.225,8.225,0,1,0-.5,2.905h-3.9a4.586,4.586,0,0,1-3.768,2,4.7,4.7,0,0,1-4.54-3.768h12.62Zm-8.08-6.038a4.668,4.668,0,0,1,4.313,3.042h-8.625A4.668,4.668,0,0,1,127.335,40.5Z" transform="translate(0 -30.2)" fill="#c2c2c2"/>
</svg>
