<svg xmlns="http://www.w3.org/2000/svg" width="132.569" height="22.406" viewBox="0 0 132.569 22.406">
  <g id="Group_48" data-name="Group 48" transform="translate(-391 -814.616)">
    <g id="mashable" transform="translate(391 814.616)">
      <path id="Path_27" data-name="Path 27" d="M17.087,0,12.5,12.145,7.888,0H0V22.012H5.677V7.46L11.25,22.012h2.5L19.3,7.46V22.012h5.677V0Z" fill="#c2c2c2"/>
      <path id="Path_28" data-name="Path 28" d="M26.677,15.785V14.363a3.513,3.513,0,0,0-2.832-1.122c-1.321,0-2.543.6-2.543,1.849s1.222,1.849,2.543,1.849a3.531,3.531,0,0,0,2.832-1.155Zm0,4.089V18.29a6.587,6.587,0,0,1-4.949,1.98,5.283,5.283,0,0,1-5.475-5.25c0-3.858,3.031-5.143,5.475-5.143a6.358,6.358,0,0,1,4.949,1.879V10.173c0-1.385-1.183-2.343-3.233-2.343a6.955,6.955,0,0,0-4.453,1.716L17.112,6.013a11.246,11.246,0,0,1,7.222-2.474c3.828,0,7.429,1.422,7.429,6.371v9.966H26.677Z" transform="translate(9.81 2.136)" fill="#c2c2c2"/>
      <path id="Path_29" data-name="Path 29" d="M26.355,17.8l2.112-3.627a9.992,9.992,0,0,0,5.612,2.142c1.515,0,2.142-.433,2.142-1.122,0-1.979-9.27.064-9.27-6.4,0-2.806,2.442-5.248,6.826-5.248a11.16,11.16,0,0,1,6.666,2.11L38.5,9.252A7.112,7.112,0,0,0,33.816,7.5c-1.19,0-1.98.463-1.98,1.09,0,1.748,9.233-.064,9.233,6.47,0,3.031-2.668,5.212-7.222,5.212A11.765,11.765,0,0,1,26.355,17.8" transform="translate(15.907 2.136)" fill="#c2c2c2"/>
      <path id="Path_30" data-name="Path 30" d="M46.941,22.012v-9.28c0-1.94-1.021-2.567-2.644-2.567a3.9,3.9,0,0,0-3.063,1.547v10.3H36.148V0h5.086V8.018a7.192,7.192,0,0,1,5.507-2.341c3.634,0,5.28,2.046,5.28,4.984V22.012h-5.08Z" transform="translate(21.817)" fill="#c2c2c2"/>
      <path id="Path_31" data-name="Path 31" d="M57.113,15.785V14.363a3.52,3.52,0,0,0-2.838-1.122c-1.321,0-2.543.6-2.543,1.849s1.222,1.849,2.543,1.849a3.538,3.538,0,0,0,2.838-1.155Zm0,4.089V18.29a6.6,6.6,0,0,1-4.949,1.98,5.287,5.287,0,0,1-5.481-5.25c0-3.858,3.037-5.143,5.481-5.143a6.378,6.378,0,0,1,4.949,1.879V10.173c0-1.385-1.191-2.343-3.233-2.343a6.981,6.981,0,0,0-4.459,1.716L47.542,6.013a11.251,11.251,0,0,1,7.229-2.474c3.826,0,7.421,1.422,7.421,6.371v9.966H57.113Z" transform="translate(28.176 2.136)" fill="#c2c2c2"/>
      <path id="Path_32" data-name="Path 32" d="M65.5,17.921c2.011,0,3.533-1.491,3.533-3.9A3.534,3.534,0,0,0,65.5,10.16a4.07,4.07,0,0,0-3.037,1.453V16.5A4.044,4.044,0,0,0,65.5,17.921ZM57.383,22.01V0h5.08V7.954a5.893,5.893,0,0,1,4.722-2.277c3.99,0,7.028,3.137,7.028,8.348,0,5.412-3.1,8.382-7.028,8.382a6.1,6.1,0,0,1-4.722-2.243v1.849h-5.08Z" transform="translate(34.633)" fill="#c2c2c2"/>
      <path id="Path_33" data-name="Path 33" d="M68.516,0H73.6V22.012h-5.08Z" transform="translate(41.353)" fill="#c2c2c2"/>
      <path id="Path_34" data-name="Path 34" d="M80.771,7.63A2.976,2.976,0,0,0,77.5,10.1h6.571c-.136-1.122-.957-2.474-3.3-2.474M72.32,11.889a8.2,8.2,0,0,1,8.451-8.35c4.716,0,8.149,3.464,8.149,8.876v1.159H77.57c.362,1.416,1.684,2.606,3.99,2.606a6.647,6.647,0,0,0,3.9-1.353l2.2,3.332A10.4,10.4,0,0,1,81,20.27c-4.916,0-8.682-3.2-8.682-8.382" transform="translate(43.649 2.136)" fill="#c2c2c2"/>
    </g>
  </g>
</svg>
